<svg width="50" height="50" viewBox="0 0 50 50" fill="none" xmlns="http://www.w3.org/2000/svg">
<g clip-path="url(#clip0_430_58)">
<path d="M0 10.5058C0.390625 10.232 0.742188 9.89314 1.15885 9.68459C7.44792 6.51723 13.737 3.37594 20.026 0.208576C20.599 -0.0781815 21.0677 -0.065147 21.6276 0.208576C28.0729 3.44111 34.5312 6.67364 40.9896 9.89314C41.4453 10.1278 41.6927 10.4667 41.6927 10.962C41.6927 13.8295 41.6927 16.6971 41.6797 19.5647C41.6797 20.2816 41.3151 20.7247 40.7422 20.7769C40.0521 20.829 39.5964 20.3728 39.5964 19.5777C39.5833 18.0527 39.5964 16.5146 39.5964 14.9896C39.5964 14.2206 39.5964 13.4646 39.5964 12.6304C39.4141 12.7086 39.2839 12.7477 39.1667 12.8129C33.2812 15.7586 27.3958 18.7044 21.5104 21.6632C21.0417 21.8978 20.638 21.8978 20.1693 21.6632C17.4349 20.2816 14.6745 18.8999 11.9401 17.5313C11.8359 17.4792 11.7318 17.4401 11.5885 17.3749C11.5755 17.5834 11.5625 17.7529 11.5625 17.9223C11.5625 19.7472 11.5625 21.572 11.5495 23.3968C11.5495 24.0355 11.1068 24.4526 10.4948 24.4395C9.92188 24.4265 9.51823 24.0094 9.47917 23.4098C9.46615 23.2665 9.47917 23.1231 9.47917 22.9667C9.47917 20.8812 9.49219 18.7956 9.46615 16.7101C9.46615 16.5277 9.33594 16.2539 9.19271 16.1888C6.92708 15.0287 4.63542 13.8947 2.35677 12.7477C2.30469 12.7216 2.23958 12.7086 2.1224 12.6695C2.10938 12.8389 2.08333 12.9693 2.08333 13.0996C2.08333 18.4568 2.08333 23.8139 2.07031 29.1841C2.07031 29.5099 2.17448 29.6663 2.46094 29.8228C7.66927 32.7034 12.8646 35.61 18.0599 38.5037C18.8932 38.9729 19.1536 39.5204 18.8151 40.133C18.4766 40.7195 17.8776 40.7977 17.0703 40.3415C11.6406 37.3175 6.21094 34.3066 0.794271 31.2696C0.494792 31.1001 0.260417 30.8134 0 30.5918C0 23.866 0 17.1794 0 10.5058ZM12.8385 15.6283C15.4297 16.9187 17.9297 18.17 20.4167 19.4343C20.7292 19.5907 20.9635 19.5777 21.276 19.4213C26.7839 16.658 32.2917 13.9077 37.7995 11.1444C37.9427 11.0793 38.0599 10.988 38.2422 10.8838C38.0469 10.7795 37.9167 10.6882 37.7734 10.6231C35.4167 9.44997 33.0599 8.27688 30.7161 7.07771C30.4036 6.9213 30.1693 6.93433 29.8698 7.09075C25.5859 9.24142 21.3021 11.3921 17.0182 13.5428C15.638 14.2206 14.2839 14.9114 12.8385 15.6283ZM3.41146 10.8838C3.55469 10.975 3.60677 11.0141 3.65885 11.0402C5.83333 12.1351 8.00781 13.23 10.2083 14.2988C10.3906 14.39 10.7161 14.3509 10.9115 14.2466C16.4323 11.4964 21.9531 8.73308 27.474 5.96979C27.6042 5.90461 27.7344 5.81337 27.9167 5.7091C25.651 4.5751 23.4505 3.48021 21.263 2.37229C20.9375 2.20284 20.6901 2.20284 20.3646 2.37229C15.2734 4.94007 10.1563 7.49481 5.03906 10.0496C4.51823 10.3102 4.01042 10.584 3.41146 10.8838Z" fill="#191919"/>
<path d="M29.492 50C28.7368 49.7784 28.19 49.2831 27.7863 48.6184C26.4321 46.4025 24.6613 44.6038 22.4478 43.2482C22.2134 43.1048 22.0051 42.9223 21.7837 42.7529C20.8462 42.036 20.5728 40.8759 21.1066 39.8853C21.6405 38.8947 22.8254 38.4385 23.9191 38.8556C24.7525 39.1684 25.5728 39.5464 26.3801 39.9244C26.6665 40.0547 26.8358 40.0156 27.0441 39.7941C28.7368 37.9432 30.4556 36.1184 32.1483 34.2675C32.3176 34.085 32.4347 33.8504 32.5389 33.6809C32.3436 33.6157 32.1743 33.5897 32.0441 33.5115C28.9452 31.8691 25.8332 30.2268 22.7342 28.5845C21.5363 27.9458 21.0806 26.7336 21.5623 25.5866C21.992 24.5568 22.9556 24.0746 24.1144 24.3222C26.2889 24.7784 28.4764 25.2477 30.6509 25.7039C33.0988 26.2252 35.5467 26.7336 37.9946 27.268C38.2941 27.3332 38.4764 27.268 38.6717 27.0594C40.2342 25.378 41.8618 23.7617 43.3722 22.0282C44.5832 20.6335 47.2264 20.5292 48.5025 21.3504C49.492 21.976 49.8827 22.9275 49.9868 24.0224C50.117 25.378 49.7785 26.5772 48.7108 27.5417C47.0702 29.0276 45.4946 30.5787 43.867 32.0907C43.5676 32.3775 43.4894 32.6251 43.5806 33.0162C44.6353 37.6303 45.69 42.2445 46.7316 46.8587C47.0181 48.123 46.5363 49.1267 45.4165 49.5568C44.3228 49.9739 43.1509 49.5308 42.5519 48.4359C40.8332 45.2685 39.1275 42.0751 37.3957 38.9077C37.2004 38.5558 36.8879 38.269 36.6274 37.9562C36.5884 37.9823 36.5493 38.0214 36.5103 38.0474C36.6144 38.1778 36.7186 38.2951 36.8358 38.4515C36.5363 38.7383 36.2368 39.012 35.9504 39.2857C34.3488 40.7716 32.7603 42.2576 31.1457 43.7304C30.8722 43.9781 30.8202 44.1867 30.9894 44.5125C31.2759 45.0991 31.5233 45.6986 31.7707 46.2982C32.565 48.123 32.1613 49.1788 30.3905 49.987C30.078 50 29.7915 50 29.492 50ZM44.9347 47.9927C44.9608 47.9666 44.9868 47.9406 45.0129 47.9015C44.8957 47.6408 44.7264 47.4062 44.6613 47.1324C43.6066 42.5182 42.565 37.9041 41.4972 33.2899C41.2498 32.2341 41.5103 31.3869 42.3045 30.6439C43.9582 29.1189 45.5728 27.5678 47.2134 26.0297C47.9035 25.378 48.1118 24.4656 47.7472 23.5923C47.6561 23.3837 47.4738 23.1752 47.2785 23.0709C46.4972 22.6668 45.4165 22.8884 44.8176 23.5141C43.242 25.1825 41.6665 26.8509 40.104 28.5323C39.453 29.2362 38.6587 29.5229 37.7212 29.3274C35.2342 28.806 32.7603 28.2716 30.2863 27.7503C28.1379 27.2941 25.9894 26.8379 23.841 26.3947C23.6978 26.3686 23.5415 26.4468 23.3853 26.4729C23.4894 26.6423 23.5676 26.6684 23.6327 26.7075C26.8358 28.402 30.0519 30.0834 33.242 31.804C34.6743 32.573 34.9087 34.2805 33.8019 35.4927C31.8358 37.6434 29.8436 39.768 27.8644 41.9056C27.3957 42.414 27.0702 42.4791 26.4321 42.2054C25.4816 41.7883 24.5311 41.3712 23.5676 40.9541C23.3983 40.8889 23.229 40.8368 23.0597 40.7716C23.1379 40.9672 23.2551 41.0845 23.3722 41.1757C25.8592 42.8962 28.0077 44.9557 29.5962 47.5495C29.6613 47.6668 29.8306 47.719 29.9478 47.7972C29.9478 47.6538 29.9868 47.4974 29.9347 47.367C29.5181 46.3895 29.1014 45.4249 28.6717 44.4604C28.3592 43.7304 28.4243 43.4176 29.0103 42.8571C31.0676 40.9411 33.1379 39.025 35.1952 37.0959C36.5754 35.8055 38.229 36.0792 39.1144 37.7216C40.7941 40.8368 42.4738 43.9651 44.1795 47.0803C44.3748 47.4192 44.6873 47.6929 44.9347 47.9927Z" fill="#191919"/>
</g>
<defs>
<clipPath id="clip0_430_58">
<rect width="50" height="50" fill="white"/>
</clipPath>
</defs>
</svg>
