<svg width="52" height="50" viewBox="0 0 52 50" fill="none" xmlns="http://www.w3.org/2000/svg">
<g clip-path="url(#clip0_430_64)">
<path d="M7.41828 14.2813C8.48221 14.2813 9.45749 14.2813 10.4328 14.2813C11.5854 14.2813 12.1173 15.1293 11.6001 16.1558C10.0781 19.2352 8.5561 22.2998 7.03407 25.3792C6.79764 25.8553 6.45777 26.1677 5.92581 26.1677C5.36428 26.1825 5.00964 25.8553 4.77321 25.3643C3.25118 22.3146 1.71438 19.2352 0.192358 16.1706C-0.310057 15.1442 0.221912 14.2962 1.37451 14.2962C2.32024 14.2962 3.26596 14.2664 4.19691 14.3111C4.61066 14.326 4.80276 14.1921 4.99486 13.8201C7.58082 8.67287 11.4524 4.83473 16.6243 2.3801C30.9579 -4.41847 47.8923 3.92726 51.3944 19.503C54.3498 32.7282 46.252 45.9534 33.1892 49.2412C21.2495 52.2462 8.96985 46.0278 4.27079 34.6175C3.9457 33.844 4.07869 33.2489 4.64021 32.9067C5.2904 32.5051 6.01447 32.7728 6.36911 33.5315C6.78287 34.3944 7.13751 35.3018 7.62515 36.1349C12.3685 44.0492 19.3433 47.9767 28.5197 47.5304C38.7601 47.0394 47.2421 39.4524 49.2222 29.3215C51.5865 17.1971 43.7104 5.34053 31.6229 2.84127C22.2395 0.892449 12.472 5.32565 7.72859 13.7011C7.62515 13.8648 7.55127 14.0284 7.41828 14.2813ZM5.89625 22.3444C6.85675 20.4253 7.75814 18.5806 8.68909 16.7062C6.78287 16.7062 4.98008 16.7062 3.08864 16.7062C4.03436 18.5955 4.95053 20.4253 5.89625 22.3444Z" fill="#191919"/>
<path d="M27.1895 11.3062C34.6962 11.321 40.7843 17.465 40.7695 25.0223C40.7547 32.5796 34.6223 38.7385 27.16 38.6938C19.6533 38.6492 13.58 32.4903 13.5948 24.9479C13.6095 17.4353 19.7272 11.2913 27.1895 11.3062ZM27.1747 36.2987C33.3515 36.2987 38.3904 31.2556 38.4052 25.0521C38.42 18.8039 33.4254 13.731 27.2043 13.7013C21.0128 13.6715 15.9443 18.7295 15.9295 24.9777C15.9295 31.2109 20.9684 36.2838 27.1747 36.2987Z" fill="#191919"/>
<path d="M28.3568 30.9878C28.3568 31.5234 28.3568 32.044 28.3568 32.5647C28.342 33.4127 27.8692 33.9482 27.1599 33.9334C26.4801 33.9185 26.0073 33.3829 26.0073 32.5796C26.0073 32.0589 26.0073 31.5382 26.0073 30.958C25.431 30.958 24.899 30.958 24.3818 30.958C23.5838 30.9432 23.0519 30.4671 23.0519 29.7679C23.0519 29.0687 23.5838 28.5927 24.3818 28.5927C25.6969 28.5778 26.9973 28.5927 28.3125 28.5927C28.9331 28.5927 29.3912 28.2059 29.5242 27.6555C29.6424 27.1497 29.3764 26.5695 28.8888 26.3612C28.6671 26.2571 28.3863 26.2422 28.1351 26.2273C27.3076 26.1976 26.4654 26.2571 25.6526 26.1678C23.7759 25.9595 22.446 24.4273 22.4756 22.5826C22.5051 20.7379 23.8794 19.28 25.7708 19.0866C25.8299 19.0866 25.8743 19.0717 26.022 19.042C26.022 18.5213 26.022 18.0006 26.022 17.465C26.0368 16.632 26.5097 16.0815 27.219 16.0964C27.9135 16.1113 28.3568 16.6171 28.3716 17.4502C28.3864 17.9708 28.3716 18.4766 28.3716 19.0866C28.9479 19.0866 29.4798 19.0866 30.0118 19.0866C30.8098 19.1015 31.3417 19.5775 31.3417 20.2618C31.3417 20.961 30.8098 21.4371 30.0118 21.452C28.6967 21.4668 27.3963 21.452 26.0811 21.452C25.4753 21.452 25.0615 21.7792 24.9138 22.285C24.766 22.7908 24.9285 23.3413 25.3719 23.5942C25.5935 23.7281 25.889 23.7876 26.155 23.8024C26.9087 23.8322 27.6623 23.7876 28.4307 23.8173C30.2778 23.8917 31.7407 25.2306 31.918 26.9414C32.0954 28.8307 31.0019 30.4225 29.1991 30.8539C28.9183 30.9134 28.6819 30.9283 28.3568 30.9878Z" fill="#191919"/>
</g>
<defs>
<clipPath id="clip0_430_64">
<rect width="52" height="50" fill="white"/>
</clipPath>
</defs>
</svg>
