<svg width="40" height="40" viewBox="0 0 40 40" fill="none" xmlns="http://www.w3.org/2000/svg">
<g clip-path="url(#clip0_296_201)">
<path d="M38.3546 39.9999C26.1182 39.9999 13.8818 39.9999 1.6454 39.9999C0.791461 39.7603 0.239521 39.2187 0 38.3541C0 29.9166 0 21.4791 0 13.0416C0.124967 12.9374 0.239521 12.8124 0.374902 12.7187C2.15569 11.4583 3.93647 10.1874 5.72767 8.93743C5.95678 8.78118 6.01927 8.61451 6.00885 8.3541C5.99844 7.20826 5.99844 6.06243 6.00885 4.9166C6.00885 3.84368 6.51914 3.33326 7.58136 3.33326C9.4767 3.33326 11.3825 3.33326 13.2778 3.32285C13.4757 3.32285 13.6944 3.26035 13.8506 3.15618C14.8607 2.45826 15.8605 1.76035 16.8394 1.03118C18.7035 -0.34382 21.2236 -0.354237 23.1086 0.99993C24.0875 1.70826 25.0664 2.4166 26.0661 3.1041C26.264 3.23951 26.5348 3.32285 26.7847 3.32285C28.68 3.34368 30.5858 3.33326 32.4811 3.33326C33.4496 3.33326 33.9807 3.86451 33.9807 4.82285C33.9807 6.02076 33.9703 7.21868 33.9911 8.4166C33.9911 8.57285 34.1057 8.7916 34.2307 8.88535C35.9906 10.1562 37.7714 11.4062 39.5418 12.6562C39.8438 12.8749 39.9896 13.1145 39.9896 13.4999C39.9792 21.6041 39.9792 29.7187 39.9792 37.8228C39.9792 38.0208 39.9688 38.2187 39.9271 38.4062C39.7605 39.2812 39.1565 39.7499 38.3546 39.9999ZM7.35225 4.68743C7.34184 4.78118 7.33142 4.84368 7.33142 4.90618C7.33142 9.18743 7.33142 13.4687 7.34184 17.7499C7.34184 17.8958 7.43556 18.0728 7.55012 18.1666C10.8305 20.9062 14.1005 23.6353 17.3913 26.3541C18.9534 27.6458 20.9737 27.6458 22.5566 26.3853C22.9732 26.052 23.3793 25.7083 23.7855 25.3645C26.6389 22.9895 29.4923 20.6249 32.3457 18.2603C32.5644 18.0728 32.6582 17.8958 32.6582 17.6041C32.6477 13.4374 32.6477 9.27076 32.6477 5.1041C32.6477 4.96868 32.6477 4.82285 32.6477 4.67701C24.202 4.68743 15.798 4.68743 7.35225 4.68743ZM37.4694 38.6562C32.8248 34.802 28.2635 31.0103 23.6917 27.2083C22.6295 28.1562 21.4111 28.6666 20.0156 28.6666C18.5993 28.6666 17.3809 28.1458 16.3083 27.2083C11.7261 31.0208 7.1648 34.8124 2.53059 38.6562C14.215 38.6562 25.785 38.6562 37.4694 38.6562ZM1.3434 37.9062C6.01927 34.0208 10.6222 30.1874 15.2669 26.3333C10.6222 22.4687 6.00885 18.6353 1.3434 14.7603C1.3434 22.5103 1.3434 30.1562 1.3434 37.9062ZM38.6462 14.7603C33.9703 18.6458 29.3674 22.4791 24.7227 26.3333C29.3674 30.1978 33.9807 34.0312 38.6462 37.8958C38.6462 30.1562 38.6462 22.4999 38.6462 14.7603ZM38.2296 13.3749C36.8133 12.3749 35.4283 11.3853 34.012 10.3853C34.012 12.5833 34.012 14.6978 34.012 16.8853C35.4387 15.6978 36.8133 14.552 38.2296 13.3749ZM5.98802 10.3749C4.5509 11.3958 3.16584 12.3749 1.75996 13.3749C3.18667 14.5624 4.56131 15.6978 5.98802 16.8853C5.98802 14.6874 5.98802 12.5728 5.98802 10.3749ZM16.0791 3.31243C18.693 3.31243 21.2965 3.31243 23.9104 3.31243C23.9313 3.28118 23.9417 3.24993 23.9625 3.21868C23.1815 2.70826 22.4212 2.14576 21.5985 1.68743C20.9529 1.33326 20.2239 1.28118 19.4741 1.36451C18.0682 1.53118 17.1518 2.5416 16.0791 3.31243Z" fill="#191919"/>
<path d="M21.3584 18.0417C20.6711 18.6667 19.89 19.0417 18.984 19.1667C17.1616 19.4167 15.6203 18.1875 15.4641 16.3542C15.2871 14.2292 16.568 11.9271 18.4633 10.9687C19.6505 10.3646 21.1189 10.6042 22.0665 11.5625C22.1603 11.6562 22.2123 11.7708 22.3477 11.9479C22.4102 11.6562 22.4414 11.4896 22.4831 11.3333C22.5768 10.9062 22.8892 10.6667 23.2537 10.7396C23.6495 10.8125 23.8786 11.1562 23.7848 11.5937C23.4099 13.4167 23.0246 15.2292 22.6393 17.0521C22.5247 17.5937 22.6601 17.8021 23.2225 17.8333C23.9202 17.875 24.5034 17.6354 24.9512 17.0937C26.2113 15.5729 26.4404 13.8437 25.7947 12.0312C25.1387 10.2187 23.8265 9.08333 21.9103 8.75C18.255 8.11458 14.4539 10.5104 13.423 14.0729C12.6002 16.9271 14.204 19.8958 17.047 20.75C19.0986 21.3646 21.1813 21.5521 23.285 21.0417C24.6596 20.7083 25.8468 20.0417 26.7632 18.9375C27.0027 18.6562 27.2839 18.5417 27.6276 18.7083C27.94 18.8542 28.0546 19.1354 27.9712 19.4583C27.94 19.6042 27.8359 19.7396 27.7317 19.8542C26.4925 21.3021 24.8991 22.1042 23.0559 22.4479C20.6815 22.8854 18.3488 22.6771 16.1098 21.8229C12.3711 20.3958 10.7778 16.0208 12.7044 12.375C14.1519 9.63541 16.3909 7.84375 19.5151 7.38541C22.8372 6.90625 25.5656 8.23958 26.8361 11.0417C27.9296 13.4583 27.7005 15.8125 25.9926 17.9271C25.274 18.8125 24.3159 19.2083 23.1704 19.1667C22.3685 19.1354 21.7645 18.7917 21.3584 18.0417ZM16.7867 15.5729C16.7762 17.1146 17.4532 17.8854 18.557 17.8646C19.1819 17.8542 19.7651 17.6667 20.2441 17.2396C21.0356 16.5312 21.6916 15.75 21.8583 14.6146C21.9416 14.0729 21.8895 13.625 21.6291 13.1667C21.5146 12.9687 21.3792 12.7708 21.2334 12.5937C20.6919 11.9479 19.7859 11.75 19.0465 12.1667C17.6094 12.9792 16.9429 14.2708 16.7867 15.5729Z" fill="#191919"/>
</g>
<defs>
<clipPath id="clip0_296_201">
<rect width="40" height="40" fill="white"/>
</clipPath>
</defs>
</svg>
