<svg width="40" height="40" viewBox="0 0 40 40" fill="none" xmlns="http://www.w3.org/2000/svg">
<g clip-path="url(#clip0_296_155)">
<path d="M0.000651042 19.2187C0.886068 17.0417 1.77148 14.8646 2.66732 12.6875C3.33398 11.0521 4.39648 10.3333 6.1569 10.3333C9.75065 10.3333 13.3444 10.3333 16.9382 10.3333C17.084 10.3333 17.2298 10.3333 17.3652 10.3542C17.7194 10.4167 17.9277 10.6771 17.8965 11.0104C17.8652 11.3542 17.6569 11.5625 17.3132 11.5729C16.8548 11.5937 16.3965 11.5937 15.9486 11.5729C15.6882 11.5625 15.584 11.6354 15.5632 11.9167C15.4486 14.375 15.3027 16.8333 15.1882 19.2917C15.1465 20.25 15.834 21.0833 16.709 21.1667C17.6257 21.2604 18.4382 20.6354 18.5319 19.6354C18.6048 18.9479 18.5111 18.2292 18.4798 17.5312C18.4486 16.8958 18.4069 16.2604 18.3652 15.625C18.3444 15.1354 18.5527 14.8437 18.9486 14.8229C19.3444 14.8021 19.584 15.0625 19.6152 15.5625C19.6882 16.8542 19.7507 18.1354 19.834 19.4271C19.8965 20.4688 20.4798 21.0729 21.5111 21.1875C21.9069 21.2292 22.1569 21.4896 22.1361 21.8437C22.1257 22.2083 21.8548 22.4375 21.459 22.4375C20.6882 22.4271 20.0423 22.125 19.5007 21.5938C19.3965 21.5 19.3236 21.375 19.2298 21.2604C17.8027 22.9062 15.7611 22.7396 14.5423 21.2917C13.9277 22 13.1777 22.4479 12.2194 22.4479C11.2715 22.4479 10.5215 22.0208 9.89648 21.2917C9.27148 22.0104 8.52148 22.4479 7.56315 22.4479C6.61523 22.4479 5.86523 22.0208 5.32357 21.3854C4.7819 21.7083 4.30273 22.1042 3.74023 22.3021C2.2819 22.8125 0.677734 21.9479 0.146484 20.4375C0.094401 20.2917 0.0423177 20.1562 -0.00976562 20.0104C0.000651042 19.7396 0.000651042 19.4792 0.000651042 19.2187ZM10.6882 11.5833C9.93815 11.5833 9.2194 11.5937 8.51107 11.5729C8.24023 11.5625 8.12565 11.6562 8.05273 11.9167C7.35482 14.3333 6.64648 16.7604 5.95898 19.1771C5.9069 19.3438 5.89648 19.5417 5.92773 19.7083C6.07357 20.5833 6.76107 21.1771 7.5944 21.1667C8.41732 21.1667 9.0944 20.5625 9.24023 19.6875C9.54232 17.9896 9.8444 16.2812 10.1465 14.5833C10.3236 13.6042 10.5007 12.625 10.6882 11.5833ZM11.9798 11.6042C11.9486 11.6771 11.9277 11.7083 11.9277 11.75C11.4694 14.2604 11.0111 16.7604 10.5632 19.2708C10.5319 19.4479 10.5527 19.6354 10.5944 19.8125C10.7923 20.6875 11.5319 21.2396 12.3861 21.1771C13.209 21.1146 13.8652 20.4167 13.9173 19.5208C14.0632 16.9375 14.209 14.3542 14.3444 11.7604C14.3444 11.7083 14.3236 11.6667 14.3132 11.6042C13.5215 11.6042 12.7611 11.6042 11.9798 11.6042ZM6.85482 11.5937C6.47982 11.5937 6.1569 11.5833 5.83398 11.5937C4.89648 11.625 4.26107 12.1042 3.9069 12.9375C3.04232 15.0104 2.18815 17.0938 1.3444 19.1771C1.26107 19.3854 1.25065 19.6667 1.30273 19.8854C1.51107 20.7187 2.24023 21.2292 3.07357 21.1562C3.86523 21.0938 4.50065 20.4167 4.60482 19.5729C4.63607 19.3125 4.67773 19.0625 4.75065 18.8125C5.20898 17.2292 5.67773 15.6458 6.13607 14.0625C6.37565 13.2604 6.60482 12.4479 6.85482 11.5937Z" fill="#191919"/>
<path d="M3.36393 40C3.04102 39.8021 2.94727 39.5208 2.94727 39.1458C2.95768 34.0312 2.95768 28.9167 2.95768 23.7917C2.95768 23.6979 2.95768 23.6042 2.9681 23.5208C3.00977 23.1875 3.19727 23 3.52018 22.9688C3.8431 22.9375 4.08268 23.0938 4.16602 23.4167C4.20768 23.5729 4.20768 23.75 4.20768 23.9167C4.20768 28.6979 4.20768 33.4688 4.20768 38.25C4.20768 38.4063 4.20768 38.5521 4.20768 38.7292C12.666 38.7292 21.0827 38.7292 29.5514 38.7292C29.5514 38.5729 29.5514 38.4167 29.5514 38.2708C29.5514 35.6979 29.5514 33.1146 29.5514 30.5417C29.5514 30.3958 29.541 30.25 29.5723 30.1146C29.6348 29.7708 29.9056 29.5521 30.2389 29.5833C30.5827 29.6146 30.7806 29.8125 30.8014 30.1667C30.8119 30.2396 30.8014 30.3229 30.8014 30.3958C30.8014 33.3125 30.8014 36.2292 30.8118 39.1458C30.8118 39.5208 30.7181 39.8021 30.3952 40C21.3743 40 12.3639 40 3.36393 40Z" fill="#191919"/>
<path d="M20.3654 10.2813C20.3446 4 25.4175 -0.562499 31.2092 0.0520847C36.4279 0.614585 40.2821 5.13542 39.98 10.3646C39.8967 11.9375 39.4488 13.4063 38.6571 14.7708C36.0529 19.1979 33.4279 23.6146 30.8133 28.0313C30.4175 28.7083 29.9175 28.7083 29.5217 28.0313C26.8967 23.6042 24.2717 19.1667 21.6675 14.7292C20.7821 13.2188 20.355 11.5729 20.3654 10.2813ZM30.1779 26.6562C30.2821 26.4896 30.355 26.3646 30.4279 26.2396C32.7821 22.25 35.1363 18.2708 37.4904 14.2813C38.5008 12.5833 38.8967 10.75 38.6779 8.78125C38.1467 4.03125 33.5633 0.552085 28.8342 1.33333C22.8029 2.33333 19.6988 8.96875 22.8029 14.2292C25.1675 18.2396 27.5425 22.2396 29.9071 26.25C30.0008 26.375 30.0738 26.4896 30.1779 26.6562Z" fill="#191919"/>
<path d="M7.86477 33.5208C7.86477 32.1667 7.80227 30.8125 7.87519 29.4583C8.00019 27.1667 9.91686 25.4375 12.2085 25.4583C14.4794 25.4792 16.396 27.2708 16.4481 29.5625C16.5106 32.2708 16.4689 34.9792 16.4689 37.6875C16.4689 38.1146 16.2085 38.375 15.8335 38.375C15.4585 38.3646 15.2294 38.1042 15.2294 37.6667C15.2294 35.0625 15.2294 32.4583 15.2294 29.8542C15.2294 28.2812 14.1877 27.0417 12.6773 26.75C11.0314 26.4375 9.34394 27.6562 9.13561 29.3229C9.10436 29.5833 9.09394 29.8437 9.09394 30.1042C9.09394 32.5417 9.09394 34.9687 9.09394 37.4062C9.09394 37.5625 9.10436 37.7187 9.07311 37.875C9.01061 38.1771 8.81269 38.3542 8.51061 38.3646C8.19811 38.3854 7.97936 38.2292 7.89602 37.9271C7.85436 37.7812 7.85436 37.6146 7.85436 37.4687C7.85436 36.1562 7.85436 34.8437 7.85436 33.5208C7.85436 33.5208 7.85436 33.5208 7.86477 33.5208Z" fill="#191919"/>
<path d="M23.3444 34C22.2402 34 21.1361 34 20.0215 34C19.4486 34 19.2402 33.7917 19.2402 33.2187C19.2402 31.4479 19.2402 29.6771 19.2402 27.9062C19.2402 27.3646 19.459 27.1354 20.0007 27.1354C22.2507 27.125 24.5007 27.125 26.7507 27.1354C27.2715 27.1354 27.4902 27.375 27.4902 27.8854C27.4902 29.6771 27.4902 31.4792 27.4902 33.2708C27.4902 33.7604 27.2611 33.9896 26.7715 33.9896C25.6361 34 24.4902 34 23.3444 34ZM20.5111 28.4167C20.5111 29.8646 20.5111 31.2917 20.5111 32.7187C22.4277 32.7187 24.3236 32.7187 26.2194 32.7187C26.2194 31.2708 26.2194 29.8542 26.2194 28.4167C24.3132 28.4167 22.4277 28.4167 20.5111 28.4167Z" fill="#191919"/>
<path d="M23.3541 36.1042C21.927 36.1042 20.4895 36.1042 19.0624 36.1042C18.7603 36.1042 18.5207 36.0313 18.3853 35.75C18.2186 35.4167 18.3957 35.0104 18.7603 34.9063C18.9061 34.8646 19.0728 34.8542 19.2186 34.8542C21.9895 34.8542 24.7603 34.8542 27.5311 34.8542C27.6041 34.8542 27.6874 34.8542 27.7603 34.8542C28.1561 34.8958 28.4166 35.1562 28.4061 35.5C28.3957 35.8542 28.1353 36.0938 27.7186 36.0938C26.2707 36.1146 24.8124 36.1042 23.3541 36.1042Z" fill="#191919"/>
<path d="M13.1986 33.1354C13.5215 33.1354 13.8236 33.4271 13.8236 33.7604C13.8236 34.0938 13.5423 34.375 13.209 34.375C12.8652 34.375 12.584 34.1042 12.584 33.7604C12.584 33.4375 12.8652 33.1458 13.1986 33.1354Z" fill="#191919"/>
<path d="M36.1361 9.8125C36.1465 13.0937 33.4694 15.7812 30.1882 15.7812C26.8965 15.7812 24.2194 13.1354 24.209 9.84375C24.1986 6.53125 26.8653 3.85416 30.1778 3.85416C33.4694 3.85416 36.1361 6.52083 36.1361 9.8125ZM25.459 9.79166C25.4486 12.4062 27.5423 14.5208 30.1465 14.5312C32.7611 14.5417 34.8757 12.4375 34.8861 9.83333C34.8965 7.25 32.7611 5.10416 30.1673 5.10416C27.5944 5.10416 25.4694 7.20833 25.459 9.79166Z" fill="#191919"/>
<path d="M30.166 12.6667C28.5723 12.6667 27.3223 11.3958 27.3223 9.80208C27.3223 8.22916 28.6139 6.94791 30.1764 6.94791C31.7389 6.94791 33.0306 8.26041 33.0306 9.82291C33.0202 11.4062 31.7389 12.6771 30.166 12.6667ZM30.1868 11.4167C31.0827 11.4062 31.8014 10.6771 31.7806 9.79166C31.7598 8.91666 31.041 8.20833 30.1764 8.20833C29.2806 8.20833 28.5723 8.92708 28.5723 9.82291C28.5723 10.7292 29.2806 11.4271 30.1868 11.4167Z" fill="#191919"/>
</g>
<defs>
<clipPath id="clip0_296_155">
<rect width="40" height="40" fill="white"/>
</clipPath>
</defs>
</svg>
