<svg width="76" height="52" viewBox="0 0 76 52" fill="none" xmlns="http://www.w3.org/2000/svg">
<g clip-path="url(#clip0_155_597)">
<path d="M0 22.395C0.475 21.3679 1.28646 21.0255 2.39479 21.0255C11.8948 21.0457 21.375 21.0457 30.875 21.0457C31.1125 21.0457 31.3698 21.0255 31.6073 21.0658C32.5771 21.1866 33.2698 21.9922 33.25 22.979C33.2302 23.9256 32.5375 24.6909 31.6073 24.8117C31.3698 24.8319 31.1125 24.8319 30.875 24.8319C21.375 24.8319 11.8948 24.8117 2.39479 24.852C1.28646 24.852 0.475 24.5096 0 23.4825C0 23.0999 0 22.7374 0 22.395Z" fill="#FC5F49"/>
<path d="M53.9916 4.12855C55.7332 4.12855 57.3957 4.12855 59.0385 4.12855C62.6405 4.12855 65.1343 5.90082 66.3812 9.34467C67.5093 12.426 68.5978 15.5275 69.7655 18.6088C69.9832 19.1928 70.3791 19.7769 70.8145 20.22C72.1603 21.5693 73.5457 22.8582 74.9312 24.127C75.6635 24.7916 75.9999 25.577 75.9999 26.584C75.9801 32.0418 75.9999 37.4996 75.9801 42.9775C75.9801 44.8303 75.0103 45.8172 73.1895 45.8172C71.7051 45.8172 70.2207 45.8172 68.7364 45.8172C68.3801 45.8172 68.1822 45.8977 68.0437 46.3005C66.7968 49.9055 63.8874 52.0402 60.3249 52.0201C56.8416 52 53.9718 49.7846 52.7645 46.1998C52.7249 46.079 52.6655 45.9783 52.626 45.8574C48.4499 45.8574 44.3135 45.8574 40.1572 45.8574C38.9499 49.543 36.5551 51.8187 32.6957 51.9597C28.4999 52.1208 25.8676 49.8048 24.5218 45.8172C22.5426 45.8172 20.5635 45.8172 18.5843 45.8172C17.278 45.8172 16.427 45.072 16.4468 43.9442C16.4468 42.8365 17.3176 42.0511 18.5843 42.0511C20.5635 42.0511 22.5426 42.0511 24.5416 42.0511C25.0364 40.158 25.9864 38.5871 27.4905 37.419C31.8843 33.9953 38.1978 35.9891 39.9395 41.3462C40.1176 41.9101 40.3551 42.0511 40.9093 42.0511C44.5707 42.031 48.2322 42.031 51.8937 42.031C52.1114 42.031 52.3291 42.031 52.6062 42.031C53.0218 40.5608 53.6551 39.2517 54.7041 38.1843C58.9395 33.8342 66.0843 35.4856 67.9843 41.3059C68.1822 41.89 68.4395 42.0712 69.0135 42.0511C70.0624 41.9907 71.1312 42.031 72.2593 42.031C72.2593 41.7087 72.2593 41.467 72.2593 41.2254C72.2593 36.6537 72.2593 32.0619 72.2791 27.4903C72.2791 26.9667 72.1207 26.6042 71.7249 26.2618C70.5572 25.2145 69.4291 24.127 68.2416 23.0999C67.9645 22.8582 67.5489 22.6971 67.1926 22.6971C62.5218 22.677 57.851 22.677 53.1603 22.677C51.1812 22.677 50.251 21.7304 50.251 19.7165C50.251 14.742 50.251 9.74745 50.251 4.77302C50.251 4.47092 50.251 4.18897 50.251 3.80632C49.8947 3.80632 49.5978 3.80632 49.301 3.80632C39.1874 3.80632 29.0739 3.80632 18.9603 3.80632C18.6437 3.80632 18.3072 3.82646 17.9905 3.76604C17.0405 3.60493 16.3874 2.77921 16.427 1.8528C16.4666 0.926386 17.1791 0.140948 18.1093 0.0402508C18.4062 -2.8053e-05 18.703 0.0201114 18.9999 0.0201114C29.628 0.0201114 40.177 0.0603902 50.7458 -2.80518e-05C53.1801 -0.0201675 54.1895 1.36945 54.0114 3.32298C53.9916 3.56465 53.9916 3.78618 53.9916 4.12855ZM54.051 7.89463C54.051 11.6003 54.051 15.2254 54.051 18.8505C58.0291 18.8505 61.928 18.8505 65.926 18.8505C64.8374 15.8698 63.7885 12.9295 62.6801 10.0495C62.1655 8.72034 61.077 7.97518 59.6916 7.91477C57.8312 7.85435 55.9708 7.89463 54.051 7.89463ZM36.6739 43.9039C36.6937 41.4872 34.7937 39.5135 32.4385 39.4732C30.103 39.433 28.1239 41.4066 28.0843 43.8032C28.0447 46.1998 29.9843 48.1936 32.3395 48.2138C34.7145 48.2339 36.6541 46.3207 36.6739 43.9039ZM64.7385 43.8435C64.7385 41.4469 62.7989 39.4732 60.4437 39.4732C58.0885 39.4934 56.1489 41.4872 56.1489 43.8636C56.1687 46.2602 58.1082 48.2339 60.4635 48.2138C62.8385 48.2138 64.7187 46.2804 64.7385 43.8435Z" fill="#FC5F49"/>
<path d="M20.8604 14.3392C17.476 14.3392 14.0916 14.3392 10.6875 14.3392C9.34162 14.3392 8.53016 13.5538 8.56974 12.3656C8.60933 11.4392 9.28224 10.694 10.1927 10.6134C10.4302 10.5933 10.6875 10.5933 10.925 10.5933C17.575 10.5933 24.225 10.5933 30.8947 10.5933C31.2114 10.5933 31.5479 10.5732 31.8645 10.6537C32.6364 10.8148 33.2302 11.5801 33.25 12.4059C33.2697 13.2517 32.775 14.017 31.9833 14.2385C31.627 14.3392 31.251 14.3594 30.875 14.3594C27.55 14.3594 24.2052 14.3392 20.8604 14.3392Z" fill="#FC5F49"/>
<path d="M13.2407 35.2642C11.123 35.2642 8.9855 35.2843 6.86779 35.2642C5.62091 35.244 4.84904 34.2773 5.02716 33.069C5.16571 32.1425 5.91779 31.5384 7.00633 31.5182C8.53029 31.4981 10.074 31.5182 11.598 31.5182C14.1907 31.5182 16.7834 31.5182 19.3761 31.5182C20.6032 31.5182 21.3751 32.1627 21.4938 33.1898C21.6126 34.3579 20.8209 35.2642 19.5938 35.2843C17.4959 35.2843 15.3782 35.2642 13.2407 35.2642Z" fill="#FC5F49"/>
</g>
<defs>
<clipPath id="clip0_155_597">
<rect width="76" height="52" fill="white"/>
</clipPath>
</defs>
</svg>
