<svg width="59" height="52" viewBox="0 0 59 52" fill="none" xmlns="http://www.w3.org/2000/svg">
<g clip-path="url(#clip0_155_606)">
<path d="M0 15.036C0.20166 14.1152 0.460938 13.2231 1.05151 12.4605C2.20386 10.9641 3.75952 10.3454 5.61768 10.3598C8.67139 10.3742 11.7251 10.3742 14.7788 10.3598C15.1533 10.3598 15.5422 10.3022 15.9023 10.1871C22.0242 8.15832 28.1316 6.12955 34.239 4.10077C34.6711 3.95688 34.916 3.75545 35.0889 3.29501C35.9243 0.992856 38.301 -0.302108 40.8794 0.0863817C43.04 0.417317 44.8982 2.44609 45.0566 4.67631C45.0999 5.19429 45.1143 5.71228 45.1143 6.23027C45.1143 16.1152 45.1143 25.9857 45.1143 35.8706C45.1143 37.6979 44.5813 39.2518 43.1265 40.4317C40.4473 42.6044 36.2556 41.4821 35.0745 38.2447C34.916 37.8274 34.6855 37.6116 34.2678 37.4821C31.1853 36.4749 28.1172 35.4389 25.0491 34.4173C24.833 34.3454 24.6169 34.2878 24.3 34.1871C24.3 34.8777 24.3145 35.5108 24.3 36.1583C24.2712 37.9425 23.6375 39.4389 22.1826 40.5468C21.1599 41.3238 19.9788 41.5972 18.7256 41.5972C18.1206 41.5972 17.5156 41.5972 16.853 41.5972C17.0115 43.2662 17.1987 44.849 17.314 46.4317C17.458 48.3598 16.709 49.9425 15.1245 51.036C13.4536 52.1871 11.6387 52.3598 9.79492 51.4101C7.86475 50.4173 7.11572 48.7482 6.91406 46.6475C6.43872 41.554 5.84814 36.4605 5.30078 31.3813C5.30078 31.3526 5.27197 31.3094 5.28638 31.3526C4.45093 31.108 3.62988 30.9641 2.89526 30.6188C1.29639 29.813 0.374512 28.5036 0.0864258 26.7626C0.0720215 26.6907 0.0288086 26.6188 0 26.5468C0 22.7051 0 18.8777 0 15.036ZM34.6711 7.61156C34.4263 7.6835 34.239 7.72667 34.0662 7.78422C28.6934 9.56839 23.335 11.367 17.9766 13.1367C17.53 13.2806 17.3572 13.4677 17.3572 13.9569C17.386 18.5036 17.3716 23.0504 17.3572 27.5972C17.3572 28.072 17.5156 28.2447 17.9478 28.3885C21.9521 29.6979 25.9421 31.0504 29.9465 32.3741C31.5022 32.8921 33.0723 33.4101 34.6711 33.9425C34.6711 25.1511 34.6711 16.4173 34.6711 7.61156ZM13.8425 27.6979C13.8425 23.0504 13.8425 18.4749 13.8425 13.8993C13.7561 13.8706 13.6985 13.8418 13.6553 13.8418C10.8176 13.8418 7.97998 13.8274 5.12793 13.8562C4.13403 13.8706 3.47144 14.6044 3.47144 15.6259C3.45703 19.036 3.45703 22.4461 3.47144 25.8706C3.47144 26.9929 4.20605 27.6835 5.32959 27.6979C6.20825 27.7123 7.10132 27.6979 7.97998 27.6979C9.91016 27.6979 11.8547 27.6979 13.8425 27.6979ZM41.6428 20.777C41.6428 15.7554 41.6428 10.7339 41.6428 5.69789C41.6428 5.45329 41.6428 5.19429 41.614 4.94969C41.542 4.24465 41.0667 3.69789 40.3896 3.51084C39.1365 3.16552 38.1714 4.04322 38.1714 5.53962C38.1714 15.6835 38.1714 25.8274 38.1714 35.9713C38.1714 36.259 38.1858 36.5468 38.2578 36.8202C38.4451 37.554 39.0933 38.0576 39.8567 38.072C40.6345 38.0864 41.3547 37.6116 41.5564 36.8634C41.6428 36.5612 41.6428 36.2159 41.6428 35.8993C41.6428 30.8634 41.6428 25.813 41.6428 20.777ZM12.4021 31.2087C11.1489 31.2087 9.96777 31.2087 8.77222 31.2087C8.81543 31.6979 8.85864 32.1295 8.90186 32.5756C9.3916 37.1655 9.88135 41.7554 10.3711 46.3454C10.4143 46.7195 10.4431 47.1223 10.5728 47.4677C10.8464 48.2303 11.6963 48.6475 12.4885 48.4749C13.396 48.2734 13.929 47.5396 13.8425 46.5612C13.5256 43.0648 13.1943 39.5828 12.863 36.1008C12.719 34.4605 12.5605 32.849 12.4021 31.2087ZM16.5361 38.1008C17.0403 38.1008 17.4292 38.1008 17.8325 38.1008C18.2358 38.1008 18.6392 38.1152 19.0425 38.1008C20.094 38.0576 20.7854 37.4245 20.8142 36.3741C20.8574 35.367 20.843 34.3454 20.8142 33.3238C20.8142 33.1799 20.6702 32.9641 20.5405 32.9209C19.0281 32.4029 17.5012 31.8993 15.9023 31.367C16.1184 33.6403 16.3345 35.8705 16.5361 38.1008Z" fill="#FC5F49"/>
<path d="M57.185 31.1943C56.9402 31.1223 56.6377 31.0504 56.3784 30.9209C54.1313 29.813 51.8842 28.6907 49.6372 27.5684C48.7729 27.1367 48.4128 26.3022 48.6721 25.4676C48.9026 24.6907 49.6804 24.1727 50.487 24.259C50.7463 24.2878 51.0056 24.3741 51.2505 24.5036C53.4831 25.6115 55.7014 26.7194 57.9341 27.8417C58.6543 28.2015 59.0576 28.777 59 29.5971C58.9424 30.331 58.539 30.8346 57.8332 31.0792C57.6316 31.1223 57.4443 31.1367 57.185 31.1943Z" fill="#FC5F49"/>
<path d="M48.6001 12.1008C48.6001 11.3957 48.917 10.8777 49.5364 10.5612C51.8555 9.38135 54.189 8.21588 56.5225 7.07919C57.4155 6.64753 58.395 7.02163 58.8127 7.87055C59.2161 8.70509 58.9424 9.69789 58.0637 10.1439C55.7302 11.3382 53.3823 12.518 51.02 13.6547C49.8677 14.2159 48.6001 13.367 48.6001 12.1008Z" fill="#FC5F49"/>
<path d="M53.7856 17.3094C54.8947 17.3094 56.0183 17.295 57.1274 17.3094C58.2509 17.3238 59.0144 18.0432 59 19.0504C58.9856 20.0288 58.2221 20.7626 57.1418 20.7626C54.9235 20.777 52.6909 20.777 50.4726 20.7626C49.3491 20.7626 48.6001 20.0288 48.6145 19.0072C48.6289 18.0144 49.3491 17.3238 50.4582 17.3094C51.5673 17.295 52.6765 17.3094 53.7856 17.3094Z" fill="#FC5F49"/>
</g>
<defs>
<clipPath id="clip0_155_606">
<rect width="59" height="52" fill="white"/>
</clipPath>
</defs>
</svg>
