<svg width="52" height="52" viewBox="0 0 52 52" fill="none" xmlns="http://www.w3.org/2000/svg">
<g clip-path="url(#clip0_155_584)">
<path d="M0 18.5878C0 14.3233 0 10.0588 0 5.79427C0.0270763 5.72658 0.0676907 5.67243 0.0812289 5.60474C0.676907 3.04603 2.46394 1.63806 5.09034 1.63806C13.0372 1.63806 20.9977 1.63806 28.9445 1.63806C32.0042 1.63806 34.0214 3.65524 34.0214 6.7284C34.0214 9.17881 34.0214 11.6292 34.0214 14.0932C34.0214 14.2691 34.0214 14.4587 34.0214 14.7024C34.2921 14.7024 34.5087 14.7024 34.7253 14.7024C38.9357 14.7024 43.1596 14.6753 47.37 14.7294C49.9693 14.7701 51.9594 16.8549 51.9729 19.4543C52 22.7576 52 26.0609 51.9729 29.3506C51.9458 31.1918 51.0659 32.5592 49.4684 33.4798C49.3465 33.5475 49.2247 33.6152 49.0758 33.6964C49.157 33.7641 49.1976 33.7911 49.2382 33.8182C51.1065 34.7794 52 36.3228 51.9865 38.4212C51.9729 39.7885 51.9865 41.1559 51.9865 42.5368C51.9865 43.0919 52.0135 43.6605 51.9323 44.202C51.6886 45.9484 50.7274 47.1804 49.1435 47.9385C48.8185 48.0874 48.6832 48.277 48.7102 48.629C48.7373 49.0622 48.6832 49.5089 48.7238 49.9422C48.805 50.8898 48.4801 51.5803 47.6136 51.9999C43.0107 51.9999 38.4077 51.9999 33.8047 51.9999C32.9112 51.6615 32.5592 50.9981 32.5998 50.0505C32.6269 49.4819 32.5863 48.8997 32.6134 48.3311C32.6269 47.9791 32.5186 47.7354 32.2749 47.4917C30.7045 45.9484 29.1612 44.378 27.6043 42.8346C26.7649 42.0088 26.2098 41.0205 26.1422 39.8562C26.0745 38.8138 26.0474 37.7443 26.1692 36.7154C26.2775 35.8354 26.6295 34.9825 26.8597 34.1296C25.5059 34.1296 24.0844 34.1296 22.6493 34.1296C22.6358 34.3327 22.6222 34.4816 22.6087 34.6305C22.3244 37.0945 20.4426 38.9492 18.0463 38.9898C15.1898 39.0439 12.3332 39.0439 9.46316 38.9898C7.17522 38.9492 5.23926 37.1892 4.9685 34.9284C4.83312 33.7235 4.88727 32.4915 4.87373 31.2866C4.87373 28.2134 6.87738 26.1962 9.95053 26.1827C11.8594 26.1827 13.7683 26.1827 15.6907 26.1827C15.8802 26.1827 16.0833 26.1827 16.2864 26.1827C16.2864 24.9643 16.2864 23.8406 16.2864 22.6628C16.0562 22.6628 15.8532 22.6628 15.6636 22.6628C12.076 22.6628 8.48841 22.6763 4.90081 22.6763C2.49102 22.6763 0.622755 21.1736 0.094767 18.8315C0.0812288 18.7367 0.0270763 18.669 0 18.5878ZM30.9617 14.7024C30.9753 14.4993 30.9888 14.3504 30.9888 14.2015C30.9888 11.6698 30.9888 9.12465 30.9888 6.59302C30.9888 5.37459 30.2848 4.69768 29.0529 4.69768C21.0383 4.69768 13.0237 4.69768 5.00911 4.69768C3.75007 4.69768 3.05962 5.38813 3.05962 6.63364C3.05962 10.316 3.05962 14.0119 3.05962 17.6943C3.05962 18.9263 3.75007 19.6167 4.9685 19.6167C8.58318 19.6167 12.2114 19.6032 15.8261 19.6032C15.9885 19.6032 16.151 19.5896 16.2999 19.5761C16.3405 19.2106 16.3541 18.9127 16.4082 18.6149C16.8685 16.2593 18.7639 14.7159 21.2684 14.7024C24.301 14.6888 27.32 14.7024 30.3525 14.7024C30.5285 14.7024 30.7316 14.7024 30.9617 14.7024ZM32.6134 31.0294C32.6134 30.718 32.6134 30.5014 32.6134 30.2848C32.6269 28.7008 32.5728 27.1033 32.6946 25.5193C32.8841 23.0825 34.7524 21.3767 37.1893 21.2548C39.5991 21.1465 41.5756 22.6628 42.063 25.032C42.1578 25.5058 42.1849 26.0067 42.1984 26.4941C42.2119 27.9833 42.1984 29.4589 42.1984 30.9752C42.4015 30.9888 42.5504 31.0023 42.6993 31.0023C44.1343 31.0023 45.5694 31.0023 47.018 31.0023C48.277 31.0023 48.9404 30.3118 48.9404 29.0393C48.9404 25.939 48.9404 22.8523 48.9404 19.7521C48.9404 18.4118 48.2906 17.7485 46.9503 17.7485C38.4212 17.7485 29.8922 17.7485 21.3632 17.7485C20.0094 17.7485 19.3595 18.3983 19.3595 19.725C19.3595 22.8388 19.3595 25.9526 19.3595 29.0663C19.3595 30.3931 20.0364 31.0564 21.3767 31.0429C23.5564 31.0294 25.736 31.0294 27.9292 31.0158C29.4725 31.0158 31.0023 31.0294 32.6134 31.0294ZM32.6134 34.0619C30.894 34.0619 29.4996 35.1585 29.2424 36.7425C29.1205 37.5006 29.1747 38.2858 29.1476 39.071C29.107 39.7479 29.3507 40.2759 29.8381 40.7498C31.5845 42.4691 33.3038 44.2155 35.0502 45.9484C35.4835 46.3816 35.7136 46.869 35.6865 47.4782C35.6595 47.9656 35.6865 48.453 35.6865 48.9132C39.0711 48.9132 42.3744 48.9132 45.7048 48.9132C45.7048 48.3446 45.7048 47.8302 45.7048 47.3022C45.6912 46.5982 46.0161 46.1109 46.6389 45.7995C47.0315 45.6099 47.4241 45.3933 47.8167 45.2038C48.6155 44.8383 48.981 44.2291 48.9675 43.3491C48.9539 41.738 48.9675 40.1405 48.9675 38.5295C48.9675 37.2298 48.629 36.7695 47.37 36.3499C45.0685 35.5782 42.7534 34.8065 40.452 34.0348C39.5043 33.7099 39.1929 33.2767 39.1794 32.2749C39.1794 30.3795 39.1794 28.4842 39.1794 26.5889C39.1794 26.291 39.1794 25.9796 39.1252 25.6818C38.9492 24.6664 38.0016 24.0708 37.0133 24.328C36.1333 24.5446 35.6865 25.1809 35.6865 26.2369C35.6865 29.8245 35.6865 33.4121 35.6865 36.9997C35.6865 37.2028 35.6865 37.4058 35.673 37.6089C35.5918 38.3535 35.0367 38.8815 34.2921 38.9221C33.4934 38.9627 32.8706 38.543 32.7081 37.7984C32.654 37.5412 32.6405 37.2569 32.6405 36.9997C32.6134 36.0249 32.6134 35.0637 32.6134 34.0619ZM13.7277 35.9572C15.0815 35.9572 16.4353 35.9708 17.7891 35.9572C18.7774 35.9437 19.4949 35.2668 19.5897 34.3191C19.6168 34.0078 19.5355 33.8453 19.2242 33.7235C17.4642 32.9653 16.5571 31.5709 16.3541 29.6891C16.3135 29.3506 16.2322 29.2288 15.8802 29.2288C13.8495 29.2423 11.8188 29.2288 9.78808 29.2423C8.6238 29.2559 7.94689 29.9599 7.93335 31.1241C7.91981 32.0989 7.91981 33.0872 7.93335 34.0619C7.94689 35.2668 8.65087 35.9708 9.86931 35.9708C11.1554 35.9573 12.4416 35.9572 13.7277 35.9572Z" fill="#FC5F49"/>
<path d="M44.7164 11.196C43.8364 11.196 42.9564 11.2231 42.0764 11.196C39.6531 11.1012 37.6765 9.1788 37.5547 6.76902C37.5141 5.74012 37.487 4.68414 37.6765 3.69586C38.0827 1.58391 40.0051 0.0676355 42.1441 0.0270211C43.8635 -5.52032e-05 45.5963 -5.52032e-05 47.3157 0.0270211C49.8473 0.0676355 51.9051 2.12543 51.9593 4.6706C51.9728 5.52351 51.9999 6.40349 51.878 7.24285C51.5396 9.47664 49.6578 11.1148 47.3969 11.196C46.5034 11.2231 45.6099 11.196 44.7164 11.196ZM44.757 8.16344C45.5828 8.16344 46.4086 8.17698 47.2345 8.14991C48.2092 8.12283 48.9132 7.40531 48.9267 6.43056C48.9403 5.88904 48.9403 5.34751 48.9267 4.80598C48.8997 3.79062 48.1821 3.05956 47.1532 3.05956C45.5422 3.04603 43.9447 3.04603 42.3337 3.05956C41.3183 3.0731 40.6143 3.75001 40.5602 4.76537C40.5331 5.3069 40.5466 5.84842 40.5602 6.38995C40.5872 7.473 41.2777 8.14991 42.3607 8.16344C43.173 8.16344 43.9582 8.16344 44.757 8.16344Z" fill="#FC5F49"/>
</g>
<defs>
<clipPath id="clip0_155_584">
<rect width="52" height="52" fill="white"/>
</clipPath>
</defs>
</svg>
