<svg width="16" height="14" viewBox="0 0 16 14" fill="none" xmlns="http://www.w3.org/2000/svg">
<g clip-path="url(#clip0_165_640)">
<path d="M9.61646 9.63721L1.83244 5.50695C0.535168 4.80191 0.141773 3.10037 1.04759 1.60387C1.95302 0.207379 3.75534 -0.385626 5.05261 0.319418C5.55144 0.621358 5.94989 1.02291 6.14794 1.52368L9.61646 9.63721Z" fill="#5E5E5E"/>
<path d="M7.80382 12.8302L1.89998 13.8073C0.899212 14.0034 0.00193842 13.2999 0.00582248 12.2999C0.00970653 11.2999 0.713586 10.3026 1.81397 10.2069C2.21435 10.1085 2.51396 10.2096 2.81357 10.3108L7.80382 12.8302Z" fill="#5E5E5E"/>
<path d="M12.1206 8.54694L11.9435 2.64621C11.9474 1.64621 12.6513 0.648939 13.7517 0.553212C14.7525 0.357098 15.6497 1.06059 15.6459 2.06058C15.6443 2.46058 15.5427 2.86019 15.3416 3.15941L12.1206 8.54694Z" fill="#5E5E5E"/>
</g>
<defs>
<clipPath id="clip0_165_640">
<rect width="15.5" height="13.8" fill="white" transform="translate(15.5 13.8601) rotate(-179.777)"/>
</clipPath>
</defs>
</svg>
